<svg width="36" height="74" viewBox="0 0 36 74" fill="none" xmlns="http://www.w3.org/2000/svg">
<path d="M15.3256 1.00082C15.1405 1.01826 14.9687 1.10429 14.8439 1.242C14.7191 1.37972 14.6504 1.55914 14.6512 1.74498V5.61698C13.8282 5.85832 13.0418 6.17785 12.3023 6.58207L9.5814 3.84958C9.44207 3.71185 9.25406 3.6346 9.05814 3.6346C8.86222 3.6346 8.67421 3.71185 8.53488 3.84958L4.84884 7.53554C4.7111 7.67485 4.63385 7.86287 4.63385 8.05878C4.63385 8.25469 4.7111 8.4427 4.84884 8.58202L7.5814 11.3029C7.17716 12.0424 6.85762 12.8287 6.61628 13.6517H2.74419C2.54682 13.6517 2.35755 13.7301 2.21799 13.8696C2.07843 14.0092 2.00002 14.1985 2 14.3958V19.605C2.00002 19.8024 2.07843 19.9916 2.21799 20.1312C2.35755 20.2707 2.54682 20.3491 2.74419 20.3492H6.61628C6.85762 21.1721 7.17716 21.9585 7.5814 22.6979L4.84884 25.4188C4.7111 25.5581 4.63385 25.7461 4.63385 25.942C4.63385 26.138 4.7111 26.326 4.84884 26.4653L8.53488 30.1512C8.67421 30.289 8.86222 30.3662 9.05814 30.3662C9.25406 30.3662 9.44207 30.289 9.5814 30.1512L12.3023 27.4187C13.0418 27.823 13.8282 28.1425 14.6512 28.3838V32.2558C14.6512 32.4532 14.7296 32.6425 14.8692 32.782C15.0087 32.9216 15.198 33 15.3953 33H20.6047C20.802 33 20.9913 32.9216 21.1308 32.782C21.2704 32.6425 21.3488 32.4532 21.3488 32.2558V27.849C21.3502 27.7504 21.332 27.6525 21.2952 27.5609C21.2585 27.4694 21.2039 27.3861 21.1346 27.3159C21.0654 27.2457 20.9829 27.1899 20.8919 27.1519C20.8009 27.1138 20.7033 27.0942 20.6047 27.0942C20.506 27.0942 20.4084 27.1138 20.3174 27.1519C20.2264 27.1899 20.1439 27.2457 20.0747 27.3159C20.0054 27.3861 19.9508 27.4694 19.9141 27.5609C19.8773 27.6525 19.8591 27.7504 19.8605 27.849V31.5117H16.1395V27.849C16.139 27.6824 16.0825 27.5208 15.9792 27.3901C15.8759 27.2594 15.7317 27.1671 15.5698 27.1281C14.489 26.8694 13.4767 26.437 12.5581 25.8723C12.4144 25.785 12.2454 25.7491 12.0786 25.7702C11.9117 25.7913 11.757 25.8683 11.6395 25.9886L9.05814 28.5815L6.4186 25.942L9.01163 23.3607C9.13192 23.2432 9.2089 23.0885 9.23001 22.9217C9.25112 22.7549 9.21514 22.5859 9.12791 22.4421C8.56319 21.5235 8.13077 20.5113 7.87209 19.4306C7.83303 19.2686 7.74077 19.1245 7.61006 19.0212C7.47935 18.9179 7.31776 18.8614 7.15116 18.8608H3.48837V15.14H7.15116C7.31776 15.1394 7.47935 15.083 7.61006 14.9797C7.74077 14.8764 7.83303 14.7322 7.87209 14.5702C8.13077 13.4895 8.56319 12.4773 9.12791 11.5587C9.21514 11.415 9.25112 11.2459 9.23001 11.0791C9.2089 10.9123 9.13192 10.7576 9.01163 10.6401L6.4186 8.05878L9.05814 5.41931L11.6395 8.01227C11.757 8.13256 11.9117 8.20953 12.0786 8.23064C12.2454 8.25176 12.4144 8.21577 12.5581 8.12854C13.4767 7.56384 14.489 7.13143 15.5698 6.87276C15.7317 6.8337 15.8759 6.74144 15.9792 6.61073C16.0825 6.48003 16.139 6.31844 16.1395 6.15185V2.48915H19.8605V6.15185C19.861 6.31844 19.9175 6.48003 20.0208 6.61073C20.1241 6.74144 20.2683 6.8337 20.4302 6.87276C21.511 7.13143 22.5233 7.56384 23.4419 8.12854C23.5856 8.21577 23.7546 8.25176 23.9214 8.23064C24.0883 8.20953 24.243 8.13256 24.3605 8.01227L26.9419 5.41931L29.5814 8.05878L26.9884 10.6401C26.8681 10.7576 26.7911 10.9123 26.77 11.0791C26.7489 11.2459 26.7849 11.415 26.8721 11.5587C27.4368 12.4773 27.8692 13.4895 28.1279 14.5702C28.167 14.7322 28.2592 14.8764 28.3899 14.9797C28.5207 15.083 28.6822 15.1394 28.8488 15.14H32.5116V18.8608H28.8488C28.6822 18.8614 28.5207 18.9179 28.3899 19.0212C28.2592 19.1245 28.167 19.2686 28.1279 19.4306C27.9458 20.1914 27.6764 20.9188 27.3372 21.6049L25.0349 19.3143C25.2775 18.5841 25.4419 17.8153 25.4419 17.0004C25.4419 12.8993 22.1012 9.55874 18 9.55874C17.1475 9.55874 16.3349 9.7063 15.5814 9.96571C15.4619 10.0072 15.355 10.0784 15.2707 10.1727C15.1864 10.2669 15.1275 10.3811 15.0995 10.5045C15.0716 10.6278 15.0756 10.7562 15.111 10.8776C15.1465 10.999 15.2124 11.1093 15.3023 11.1982L18.9186 14.8144L18.4767 17.4771L15.814 17.919L12.1977 14.3028C12.1088 14.2128 11.9984 14.147 11.8771 14.1115C11.7557 14.076 11.6272 14.0721 11.5039 14.1C11.3805 14.1279 11.2663 14.1868 11.1721 14.2711C11.0778 14.3555 11.0066 14.4624 10.9651 14.5819C10.7057 15.3353 10.5581 16.1479 10.5581 17.0004C10.5581 21.1015 13.8988 24.4421 18 24.4421C18.8149 24.4421 19.5837 24.2777 20.314 24.0351L26.4186 30.1512C26.5579 30.289 26.7459 30.3662 26.9419 30.3662C27.1378 30.3662 27.3258 30.289 27.4651 30.1512L31.1512 26.4653C31.2889 26.326 31.3662 26.138 31.3662 25.942C31.3662 25.7461 31.2889 25.5581 31.1512 25.4188L28.4302 22.7096C28.8288 21.9678 29.1411 21.1739 29.3837 20.3492H33.2558C33.4532 20.3491 33.6425 20.2707 33.782 20.1312C33.9216 19.9916 34 19.8024 34 19.605V14.3958C34 14.1985 33.9216 14.0092 33.782 13.8696C33.6425 13.7301 33.4532 13.6517 33.2558 13.6517H29.3837C29.1424 12.8287 28.8228 12.0424 28.4186 11.3029L31.1512 8.58202C31.2889 8.4427 31.3662 8.25469 31.3662 8.05878C31.3662 7.86287 31.2889 7.67485 31.1512 7.53554L27.4651 3.84958C27.3258 3.71185 27.1378 3.6346 26.9419 3.6346C26.7459 3.6346 26.5579 3.71185 26.4186 3.84958L23.6977 6.58207C22.9582 6.17785 22.1718 5.85832 21.3488 5.61698V1.74498C21.3488 1.54763 21.2704 1.35836 21.1308 1.2188C20.9913 1.07925 20.802 1.00084 20.6047 1.00082H15.3953C15.3721 0.999727 15.3488 0.999727 15.3256 1.00082ZM18 11.0471C21.2968 11.0471 23.9535 13.7036 23.9535 17.0004C23.9535 17.7947 23.7962 18.5472 23.5116 19.2445C23.4574 19.3795 23.4439 19.5275 23.4728 19.6701C23.5017 19.8127 23.5718 19.9437 23.6744 20.0468L26.8721 23.2328L26.8953 23.2561C26.9028 23.2679 26.9105 23.2795 26.9186 23.2909C26.9641 23.3533 27.019 23.4082 27.0814 23.4537C27.0852 23.4577 27.0891 23.4615 27.093 23.4654L29.5814 25.942L26.9419 28.5815L21.0465 22.6747C20.9433 22.5721 20.8123 22.502 20.6697 22.4731C20.5271 22.4441 20.3792 22.4576 20.2442 22.5119C19.5468 22.7965 18.7943 22.9537 18 22.9537C14.7032 22.9537 12.0465 20.2971 12.0465 17.0004C12.0465 16.7765 12.1374 16.5779 12.1628 16.3609L15.0465 19.2445C15.1304 19.3289 15.2333 19.392 15.3466 19.4284C15.4599 19.4648 15.5803 19.4735 15.6977 19.4538L19.2442 18.8492C19.3949 18.8228 19.5338 18.7506 19.642 18.6424C19.7502 18.5342 19.8224 18.3953 19.8488 18.2446L20.4535 14.6981C20.4732 14.5808 20.4645 14.4604 20.4281 14.3471C20.3917 14.2338 20.3286 14.1309 20.2442 14.047L17.3605 11.1633C17.5775 11.138 17.7761 11.0471 18 11.0471Z" fill="#698297"/>
<path d="M19.8893 66.3853L19.8881 66.3832L22.0309 65.0773L19.9716 63.014C19.1915 63.2731 18.3704 63.4487 17.5 63.4487C13.1195 63.4487 9.55128 59.8805 9.55128 55.5C9.55128 54.5894 9.70889 53.7215 9.98598 52.9167C10.0303 52.789 10.1063 52.6748 10.207 52.5848C10.3077 52.4947 10.4297 52.4318 10.5614 52.402C10.6932 52.3721 10.8304 52.3764 10.96 52.4143C11.0897 52.4522 11.2075 52.5225 11.3025 52.6186L15.1651 56.4812L18.0092 56.0092L18.4812 53.1651L14.6186 49.3025C14.5225 49.2075 14.4522 49.0897 14.4143 48.96C14.3764 48.8304 14.3721 48.6932 14.402 48.5614C14.4318 48.4297 14.4947 48.3077 14.5848 48.207C14.6748 48.1063 14.789 48.0303 14.9167 47.986C15.7214 47.7089 16.5894 47.5513 17.5 47.5513C21.8805 47.5513 25.4487 51.1194 25.4487 55.5C25.4487 56.3704 25.2731 57.1915 25.014 57.9716L27.4732 60.4183C27.8355 59.6853 28.1232 58.9085 28.3177 58.0958C28.3594 57.9228 28.458 57.7688 28.5976 57.6584C28.7372 57.5481 28.9098 57.4878 29.0877 57.4872H33V53.5128H29.0877C28.9098 53.5122 28.7372 53.4519 28.5976 53.3416C28.458 53.2312 28.3594 53.0772 28.3177 52.9042C28.0414 51.7499 27.5795 50.6687 26.9764 49.6875C26.8832 49.534 26.8448 49.3534 26.8673 49.1753C26.8899 48.9971 26.9721 48.8318 27.1006 48.7063L29.8702 45.9491L27.0509 43.1298L24.2937 45.8994C24.1682 46.0279 24.0029 46.1101 23.8247 46.1327C23.6466 46.1552 23.466 46.1168 23.3125 46.0236C22.3313 45.4205 21.2501 44.9586 20.0958 44.6823C19.9228 44.6406 19.7688 44.542 19.6584 44.4024C19.5481 44.2628 19.4878 44.0902 19.4872 43.9123V40H15.5128V43.9123C15.5122 44.0902 15.4519 44.2628 15.3416 44.4024C15.2312 44.542 15.0772 44.6406 14.9042 44.6823C13.7499 44.9586 12.6687 45.4205 11.6875 46.0236C11.534 46.1168 11.3534 46.1552 11.1752 46.1327C10.9971 46.1101 10.8318 46.0279 10.7063 45.8994L7.94912 43.1298L5.12981 45.9491L7.89944 48.7063C8.02793 48.8318 8.11014 48.9971 8.13269 49.1753C8.15525 49.3534 8.11681 49.534 8.02364 49.6875C7.42046 50.6687 6.95858 51.7499 6.68229 52.9042C6.64057 53.0772 6.54202 53.2312 6.40241 53.3416C6.2628 53.4519 6.09021 53.5122 5.91226 53.5128H2V57.4872H5.91226C6.09021 57.4878 6.2628 57.5481 6.40241 57.6584C6.54202 57.7688 6.64057 57.9228 6.68229 58.0958C6.95858 59.2501 7.42046 60.3313 8.02364 61.3125C8.11681 61.466 8.15525 61.6466 8.13269 61.8247C8.11014 62.0029 8.02793 62.1682 7.89944 62.2937L5.12981 65.0509L7.94912 67.8702L10.7063 65.1006C10.8318 64.9721 10.9971 64.8899 11.1752 64.8673C11.3534 64.8448 11.534 64.8832 11.6875 64.9764C12.6687 65.5796 13.7499 66.0414 14.9042 66.3177C15.0772 66.3594 15.2312 66.458 15.3416 66.5976C15.4519 66.7372 15.5122 66.9098 15.5128 67.0877V71H19.4872V67.0877C19.4857 66.9824 19.5052 66.8778 19.5444 66.7801C19.5837 66.6823 19.642 66.5934 19.716 66.5184C19.7675 66.4661 19.8258 66.4214 19.8893 66.3853Z" fill="#BBD02D"/>
<path d="M18.1114 49C21.4957 49 24.2228 51.7271 24.2228 55.1114C24.2228 55.9268 24.0614 56.6993 23.7692 57.4151C23.7135 57.5537 23.6997 57.7056 23.7294 57.852C23.7591 57.9983 23.831 58.1328 23.9363 58.2387L27.2188 61.5093L27.2427 61.5332C27.2503 61.5453 27.2583 61.5573 27.2666 61.569C27.3133 61.633 27.3697 61.6894 27.4337 61.7361C27.4376 61.7401 27.4416 61.7441 27.4456 61.748L30 64.2905L27.2905 67L21.2387 60.9363C21.1328 60.831 20.9983 60.7591 20.852 60.7294C20.7056 60.6997 20.5537 60.7135 20.4151 60.7692C19.6993 61.0614 18.9268 61.2228 18.1114 61.2228C14.7271 61.2228 12 58.4957 12 55.1114C12 54.8816 12.0933 54.6777 12.1194 54.4549L15.0796 57.4151C15.1657 57.5018 15.2713 57.5665 15.3877 57.6039C15.504 57.6413 15.6275 57.6502 15.748 57.63L19.3886 57.0093C19.5433 56.9822 19.6859 56.908 19.797 56.797C19.908 56.6859 19.9822 56.5433 20.0093 56.3886L20.63 52.748C20.6502 52.6275 20.6413 52.504 20.6039 52.3876C20.5665 52.2713 20.5018 52.1657 20.4151 52.0796L17.4549 49.1194C17.6777 49.0933 17.8816 49 18.1114 49Z" fill="#024E80"/>
<path fill-rule="evenodd" clip-rule="evenodd" d="M14.6467 38.2571C14.7793 38.1108 14.9618 38.0194 15.1584 38.0009C15.1831 37.9997 15.2079 37.9997 15.2326 38.0009H20.7674C20.9771 38.0009 21.1782 38.0842 21.3265 38.2325C21.4748 38.3808 21.5581 38.5819 21.5581 38.7915V42.9055C22.4326 43.162 23.2681 43.5015 24.0538 43.931L26.9448 41.0277C27.0928 40.8813 27.2926 40.7993 27.5007 40.7993C27.7089 40.7993 27.9087 40.8813 28.0567 41.0277L31.9731 44.944C32.1195 45.092 32.2015 45.2918 32.2015 45.5C32.2015 45.7081 32.1195 45.9079 31.9731 46.0559L29.0698 48.9468C29.4993 49.7325 29.8388 50.568 30.0952 51.4424H34.2093C34.419 51.4424 34.6201 51.5257 34.7684 51.674C34.9167 51.8223 35 52.0234 35 52.2331V57.7678C35 57.9775 34.9167 58.1786 34.7684 58.3269C34.6201 58.4752 34.419 58.5585 34.2093 58.5585H30.0952C29.8374 59.4348 29.5056 60.2783 29.0821 61.0664L31.9731 63.945C32.1195 64.093 32.2015 64.2928 32.2015 64.5009C32.2015 64.7091 32.1195 64.9088 31.9731 65.0569L28.0567 68.9732C27.9087 69.1195 27.7089 69.2016 27.5007 69.2016C27.2926 69.2016 27.0928 69.1195 26.9448 68.9732L23.5253 65.5473L21.5581 66.7462V71.2093C21.5581 71.419 21.4748 71.6201 21.3265 71.7684C21.1782 71.9167 20.9771 72 20.7674 72H15.2326C15.0229 72 14.8218 71.9167 14.6735 71.7684C14.5252 71.6201 14.4419 71.419 14.4419 71.2093V67.0953C13.5674 66.8389 12.7319 66.4994 11.9462 66.0699L9.05523 68.9732C8.9072 69.1195 8.70744 69.2016 8.49927 69.2016C8.29111 69.2016 8.09135 69.1195 7.94331 68.9732L4.02689 65.0569C3.88054 64.9088 3.79846 64.7091 3.79846 64.5009C3.79846 64.2928 3.88054 64.093 4.02689 63.945L6.93023 61.0541C6.50073 60.2684 6.16122 59.4329 5.9048 58.5585H1.7907C1.581 58.5585 1.37989 58.4752 1.23161 58.3269C1.08333 58.1786 1.00002 57.9775 1 57.7678V52.2331C1.00002 52.0234 1.08333 51.8223 1.23161 51.674C1.37989 51.5257 1.581 51.4424 1.7907 51.4424H5.9048C6.16122 50.568 6.50073 49.7325 6.93023 48.9468L4.02689 46.0559C3.88054 45.9079 3.79846 45.7081 3.79846 45.5C3.79846 45.2918 3.88054 45.092 4.02689 44.944L7.94331 41.0277C8.09135 40.8813 8.29111 40.7993 8.49927 40.7993C8.70744 40.7993 8.9072 40.8813 9.05523 41.0277L11.9462 43.931C12.7319 43.5015 13.5674 43.162 14.4419 42.9055V38.7915C14.441 38.5941 14.5141 38.4034 14.6467 38.2571ZM20.3768 65.8283L20.3755 65.8262L22.5071 64.5272L20.4586 62.4748C19.6826 62.7326 18.8659 62.9072 18 62.9072C13.6425 62.9072 10.093 59.3579 10.093 55.0004C10.093 54.0947 10.2498 53.2313 10.5254 52.4307C10.5695 52.3038 10.6452 52.1902 10.7453 52.1006C10.8455 52.011 10.9668 51.9484 11.0979 51.9188C11.2289 51.8891 11.3654 51.8933 11.4944 51.931C11.6233 51.9687 11.7406 52.0386 11.835 52.1342L15.6773 55.9764L18.5065 55.507L18.976 52.6778L15.1337 48.8356C15.0381 48.7412 14.9682 48.6239 14.9305 48.495C14.8928 48.366 14.8886 48.2295 14.9182 48.0985C14.9479 47.9674 15.0105 47.8461 15.1001 47.746C15.1897 47.6458 15.3033 47.5701 15.4302 47.5261C16.2308 47.2504 17.0942 47.0937 18 47.0937C22.3575 47.0937 25.907 50.643 25.907 55.0004C25.907 55.8663 25.7323 56.6831 25.4746 57.4589L27.9208 59.8928C28.2812 59.1637 28.5674 58.3909 28.7609 57.5825C28.8024 57.4104 28.9004 57.2572 29.0393 57.1475C29.1782 57.0377 29.3499 56.9777 29.5269 56.9771H33.4186V53.0237H29.5269C29.3499 53.0231 29.1782 52.9631 29.0393 52.8534C28.9004 52.7436 28.8024 52.5905 28.7609 52.4184C28.4861 51.2701 28.0266 50.1946 27.4266 49.2186C27.3339 49.0659 27.2957 48.8863 27.3181 48.7091C27.3405 48.5318 27.4223 48.3674 27.5501 48.2426L30.3052 45.5L27.5007 42.6955L24.758 45.4505C24.6332 45.5783 24.4688 45.6601 24.2915 45.6826C24.1143 45.705 23.9347 45.6668 23.782 45.5741C22.806 44.9741 21.7304 44.5146 20.5821 44.2398C20.41 44.1983 20.2569 44.1003 20.1471 43.9614C20.0373 43.8225 19.9774 43.6508 19.9767 43.4738V39.5822H16.0233V43.4738C16.0226 43.6508 15.9627 43.8225 15.8529 43.9614C15.7431 44.1003 15.59 44.1983 15.4179 44.2398C14.2696 44.5146 13.194 44.9741 12.218 45.5741C12.0653 45.6668 11.8857 45.705 11.7085 45.6826C11.5312 45.6601 11.3668 45.5783 11.242 45.4505L8.49927 42.6955L5.69477 45.5L8.44985 48.2426C8.57767 48.3674 8.65945 48.5318 8.68189 48.7091C8.70432 48.8863 8.66608 49.0659 8.5734 49.2186C7.97339 50.1946 7.51394 51.2701 7.2391 52.4184C7.1976 52.5905 7.09956 52.7436 6.96069 52.8534C6.82181 52.9631 6.65012 53.0231 6.47311 53.0237H2.5814V56.9771H6.47311C6.65012 56.9777 6.82181 57.0377 6.96069 57.1475C7.09956 57.2572 7.1976 57.4104 7.2391 57.5825C7.51394 58.7308 7.97339 59.8063 8.5734 60.7823C8.66608 60.935 8.70432 61.1146 8.68189 61.2918C8.65945 61.469 8.57767 61.6334 8.44985 61.7583L5.69477 64.5009L8.49927 67.3054L11.242 64.5503C11.3668 64.4225 11.5312 64.3407 11.7085 64.3183C11.8857 64.2959 12.0653 64.3341 12.218 64.4268C13.194 65.0268 14.2696 65.4862 15.4179 65.7611C15.59 65.8026 15.7431 65.9006 15.8529 66.0395C15.9627 66.1783 16.0226 66.35 16.0233 66.527V70.4186H19.9767V66.527C19.9753 66.4223 19.9946 66.3182 20.0337 66.221C20.0728 66.1238 20.1308 66.0353 20.2043 65.9607C20.2556 65.9087 20.3136 65.8642 20.3768 65.8283ZM24.3256 55.0004C24.3256 51.4976 21.5029 48.675 18 48.675C17.8618 48.675 17.7326 48.7076 17.6035 48.7402C17.5103 48.7637 17.4171 48.7873 17.3205 48.7986L20.3844 51.8624C20.4741 51.9516 20.5411 52.0609 20.5798 52.1813C20.6185 52.3017 20.6278 52.4296 20.6068 52.5543L19.9644 56.3223C19.9363 56.4825 19.8596 56.6301 19.7446 56.745C19.6297 56.86 19.4821 56.9367 19.3219 56.9648L15.5538 57.6072C15.4291 57.6281 15.3012 57.6189 15.1808 57.5802C15.0604 57.5415 14.9511 57.4745 14.8619 57.3848L11.798 54.3209C11.7867 54.4176 11.7631 54.5107 11.7396 54.6039C11.707 54.7331 11.6744 54.8622 11.6744 55.0004C11.6744 58.5032 14.4971 61.3259 18 61.3259C18.8439 61.3259 19.6435 61.1588 20.3844 60.8564C20.5279 60.7987 20.6851 60.7844 20.8366 60.8151C20.9881 60.8459 21.1273 60.9204 21.2369 61.0294L27.5007 67.3054L30.3052 64.5009L27.6613 61.8694C27.6572 61.8654 27.6531 61.8613 27.649 61.8571C27.5827 61.8088 27.5244 61.7504 27.476 61.6841C27.472 61.6785 27.4681 61.6728 27.4642 61.667C27.4598 61.6604 27.4555 61.6538 27.4513 61.6471L27.4266 61.6224L24.0291 58.2373C23.9201 58.1276 23.8456 57.9885 23.8148 57.837C23.7841 57.6855 23.7984 57.5283 23.8561 57.3848C24.1585 56.6439 24.3256 55.8444 24.3256 55.0004Z" fill="#698297"/>
</svg>
