<svg width="36" height="74" viewBox="0 0 36 74" fill="none" xmlns="http://www.w3.org/2000/svg">
<path d="M19.5367 19.9398L26.0367 3.83093" stroke="#698297"/>
<path d="M19.4019 19.6356L31.9019 17.1186" stroke="#698297"/>
<path d="M19.8745 19.7957L31.3745 32.8842" stroke="#698297"/>
<path d="M19.3828 19.9496L8.88284 32.5347" stroke="#698297"/>
<path d="M19.0415 19.6241L7.0415 20.6309" stroke="#698297"/>
<path d="M19.2161 19.5368L4.71613 9.46881" stroke="#698297"/>
<path d="M19.5257 19.2816L15.5257 7.19998" stroke="#698297"/>
<path d="M19.5 24.1565C21.9853 24.1565 24 22.128 24 19.6259C24 17.1237 21.9853 15.0952 19.5 15.0952C17.0147 15.0952 15 17.1237 15 19.6259C15 22.128 17.0147 24.1565 19.5 24.1565Z" fill="#EDEDED" stroke="#698297"/>
<path d="M4.75 12.5782C6.54493 12.5782 8 11.1133 8 9.30614C8 7.499 6.54493 6.03403 4.75 6.03403C2.95507 6.03403 1.5 7.499 1.5 9.30614C1.5 11.1133 2.95507 12.5782 4.75 12.5782Z" fill="#EDEDED" stroke="#698297"/>
<path d="M9 34.7279C10.3807 34.7279 11.5 33.601 11.5 32.2109C11.5 30.8208 10.3807 29.6939 9 29.6939C7.61929 29.6939 6.5 30.8208 6.5 32.2109C6.5 33.601 7.61929 34.7279 9 34.7279Z" fill="#698297"/>
<path d="M30.75 35.2313C32.2688 35.2313 33.5 33.9917 33.5 32.4626C33.5 30.9335 32.2688 29.6939 30.75 29.6939C29.2312 29.6939 28 30.9335 28 32.4626C28 33.9917 29.2312 35.2313 30.75 35.2313Z" fill="#EDEDED" stroke="#698297"/>
<path d="M32 20.1293C33.6569 20.1293 35 18.777 35 17.1088C35 15.4407 33.6569 14.0884 32 14.0884C30.3431 14.0884 29 15.4407 29 17.1088C29 18.777 30.3431 20.1293 32 20.1293Z" fill="#EDEDED" stroke="#698297"/>
<path d="M15.5 10.0612C16.8807 10.0612 18 8.93433 18 7.54423C18 6.15412 16.8807 5.02722 15.5 5.02722C14.1193 5.02722 13 6.15412 13 7.54423C13 8.93433 14.1193 10.0612 15.5 10.0612Z" fill="#EDEDED" stroke="#698297"/>
<path d="M26.5 6.03401C27.8807 6.03401 29 4.90711 29 3.51701C29 2.1269 27.8807 1 26.5 1C25.1193 1 24 2.1269 24 3.51701C24 4.90711 25.1193 6.03401 26.5 6.03401Z" fill="#EDEDED" stroke="#698297"/>
<path d="M7 23.1497C8.38071 23.1497 9.5 22.0228 9.5 20.6327C9.5 19.2426 8.38071 18.1157 7 18.1157C5.61929 18.1157 4.5 19.2426 4.5 20.6327C4.5 22.0228 5.61929 23.1497 7 23.1497Z" fill="#EDEDED" stroke="#698297"/>
<path d="M19.5367 57.9398L26.0367 41.8309" stroke="black"/>
<path d="M19.4019 57.6356L31.9019 55.1186" stroke="black"/>
<path d="M19.8745 57.7957L31.3745 70.8842" stroke="black"/>
<path d="M19.3828 57.9496L8.88284 70.5347" stroke="black"/>
<path d="M19.0415 57.6241L7.0415 58.6309" stroke="black"/>
<path d="M19.2161 57.5368L4.71613 47.4688" stroke="black"/>
<path d="M19.5257 57.2816L15.5257 45.2" stroke="black"/>
<path d="M19.5 62.1565C21.9853 62.1565 24 60.128 24 57.6259C24 55.1237 21.9853 53.0952 19.5 53.0952C17.0147 53.0952 15 55.1237 15 57.6259C15 60.128 17.0147 62.1565 19.5 62.1565Z" fill="#BBD02D" stroke="black"/>
<path d="M4.75 50.5782C6.54493 50.5782 8 49.1133 8 47.3061C8 45.499 6.54493 44.034 4.75 44.034C2.95507 44.034 1.5 45.499 1.5 47.3061C1.5 49.1133 2.95507 50.5782 4.75 50.5782Z" fill="#EC9514" stroke="black"/>
<path d="M9 72.7279C10.3807 72.7279 11.5 71.601 11.5 70.2109C11.5 68.8208 10.3807 67.6939 9 67.6939C7.61929 67.6939 6.5 68.8208 6.5 70.2109C6.5 71.601 7.61929 72.7279 9 72.7279Z" fill="#271F47"/>
<path d="M30.75 73.2313C32.2688 73.2313 33.5 71.9917 33.5 70.4626C33.5 68.9335 32.2688 67.6939 30.75 67.6939C29.2312 67.6939 28 68.9335 28 70.4626C28 71.9917 29.2312 73.2313 30.75 73.2313Z" fill="#BBD02D" stroke="black"/>
<path d="M32 58.1293C33.6569 58.1293 35 56.777 35 55.1088C35 53.4407 33.6569 52.0884 32 52.0884C30.3431 52.0884 29 53.4407 29 55.1088C29 56.777 30.3431 58.1293 32 58.1293Z" fill="#0195DA" stroke="black"/>
<path d="M15.5 48.0612C16.8807 48.0612 18 46.9343 18 45.5442C18 44.1541 16.8807 43.0272 15.5 43.0272C14.1193 43.0272 13 44.1541 13 45.5442C13 46.9343 14.1193 48.0612 15.5 48.0612Z" fill="#BBD02D" stroke="black"/>
<path d="M26.5 44.034C27.8807 44.034 29 42.9071 29 41.517C29 40.1269 27.8807 39 26.5 39C25.1193 39 24 40.1269 24 41.517C24 42.9071 25.1193 44.034 26.5 44.034Z" fill="#FEC01D" stroke="black"/>
<path d="M7 61.1497C8.38071 61.1497 9.5 60.0228 9.5 58.6327C9.5 57.2426 8.38071 56.1157 7 56.1157C5.61929 56.1157 4.5 57.2426 4.5 58.6327C4.5 60.0228 5.61929 61.1497 7 61.1497Z" fill="#C81101" stroke="black"/>
</svg>
