<svg width="36" height="74" viewBox="0 0 36 74" fill="none" xmlns="http://www.w3.org/2000/svg">
<circle cx="13" cy="55" r="10" fill="#BBD02D"/>
<path d="M18 52.7313L17.5665 52.8806L15.6445 49.9403H13.8815V59.8657L15.3988 60.403L15.1098 61H10.7168V60.5373L12.0751 59.4328V49.9403H10.3555L8.43353 52.8806L8 52.7313V49L8.78035 49.2687H17.2197L18 49V52.7313Z" fill="#024E80"/>
<path d="M18.6667 48.6175C16.5333 46.941 14.5 46.5 9 47C16 47.5 20.5 50.5 22 57C22 53.5073 21.3333 50.7132 18.6667 48.6175Z" fill="white" fill-opacity="0.77"/>
<circle cx="13" cy="17" r="11" stroke="#698297" stroke-width="2"/>
<circle cx="13" cy="55" r="11" stroke="#698297" stroke-width="2"/>
<path d="M20.5 25.5L29 34" stroke="#698297" stroke-width="2"/>
<path d="M20.5 63.5L29 72" stroke="#698297" stroke-width="2"/>
</svg>
