<svg width="36" height="74" viewBox="0 0 36 74" fill="none" xmlns="http://www.w3.org/2000/svg">
<g clip-path="url(#clip0_1214_276)">
<path d="M18.1225 40C27.1374 40 34.4454 47.308 34.4454 56.3229C34.4454 65.3378 27.1374 72.6459 18.1225 72.6459C9.10755 72.6459 1.79953 65.3378 1.79953 56.3229C1.79953 47.308 9.10755 40 18.1225 40Z" fill="#BBD02D" stroke="white" stroke-width="2"/>
<path d="M18.2094 48.3943H16.496V62.2922H18.2094V48.3943Z" fill="#271F47"/>
<path fill-rule="evenodd" clip-rule="evenodd" d="M12.9737 62.2922C15.76 62.2922 18.0188 60.0335 18.0188 57.2472C18.0188 54.4608 15.76 52.202 12.9737 52.202C10.1873 52.202 7.92857 54.4608 7.92857 57.2472C7.92857 60.0335 10.1873 62.2922 12.9737 62.2922ZM13.0691 60.7691C14.9617 60.7691 16.496 59.2349 16.496 57.3423C16.496 55.4497 14.9617 53.9154 13.0691 53.9154C11.1765 53.9154 9.64221 55.4497 9.64221 57.3423C9.64221 59.2349 11.1765 60.7691 13.0691 60.7691Z" fill="#271F47"/>
<path fill-rule="evenodd" clip-rule="evenodd" d="M27.5381 52.3923H29.6323L25.6343 62.2922H25.6341L25.6341 62.2923H23.5399L19.5419 52.3924H21.6361L24.5871 59.6996L27.5381 52.3923Z" fill="#271F47"/>
<path d="M18.1225 1C27.1374 1 34.4454 8.30802 34.4454 17.3229C34.4454 26.3378 27.1374 33.6459 18.1225 33.6459C9.10755 33.6459 1.79953 26.3378 1.79953 17.3229C1.79953 8.30802 9.10755 1 18.1225 1Z" fill="#EDEDED" stroke="#698297" stroke-width="2"/>
<path d="M18.2094 9.06122H16.496V22.9591H18.2094V9.06122Z" fill="#698297"/>
<path fill-rule="evenodd" clip-rule="evenodd" d="M12.9737 23.2922C15.76 23.2922 18.0188 21.0335 18.0188 18.2472C18.0188 15.4608 15.76 13.202 12.9737 13.202C10.1873 13.202 7.92857 15.4608 7.92857 18.2472C7.92857 21.0335 10.1873 23.2922 12.9737 23.2922ZM13.0691 21.7691C14.9617 21.7691 16.496 20.2349 16.496 18.3423C16.496 16.4497 14.9617 14.9154 13.0691 14.9154C11.1765 14.9154 9.64221 16.4497 9.64221 18.3423C9.64221 20.2349 11.1765 21.7691 13.0691 21.7691Z" fill="#698297"/>
<path fill-rule="evenodd" clip-rule="evenodd" d="M27.5381 13.3923H29.6323L25.6343 23.2922H25.6341L25.6341 23.2922H23.5399L19.5419 13.3924H21.6361L24.5871 20.6996L27.5381 13.3923Z" fill="#698297"/>
</g>
<defs>
<clipPath id="clip0_1214_276">
<rect width="36" height="74" fill="white"/>
</clipPath>
</defs>
</svg>
