<svg width="36" height="74" viewBox="0 0 36 74" fill="none" xmlns="http://www.w3.org/2000/svg">
<g clip-path="url(#clip0_1214_285)">
<path d="M6.79577 48.7537H5.77246C5.68224 48.7537 5.59454 48.747 5.50738 48.737C5.48724 49.063 5.50766 49.4347 5.57689 49.8257C5.76443 50.8871 6.23694 51.7078 6.67574 51.7699C7.23098 53.2825 8.11229 54.7516 9.20205 55.8249C9.81742 56.4341 10.5007 56.9156 11.2283 57.2079C11.7289 57.4069 12.2516 57.5195 12.7906 57.5195C13.3259 57.5195 13.8492 57.4089 14.3492 57.2079C15.1028 56.9042 15.8087 56.4001 16.4414 55.7617C17.5045 54.6901 18.3648 53.2427 18.9082 51.7568C19.3286 51.6326 19.768 50.8384 19.9478 49.8241C20.0154 49.4401 20.0363 49.0747 20.0181 48.7532C20.011 48.7532 20.0052 48.754 19.9983 48.754H18.786C18.8525 48.9309 18.8875 49.1711 18.882 49.4487C18.879 49.6125 18.8627 49.7898 18.8293 49.9731C18.8213 50.0222 18.8092 50.0642 18.7976 50.1105C18.6903 50.6079 18.4931 51.015 18.2835 51.195C18.2368 51.2365 18.1853 51.2653 18.1378 51.2814C18.0929 51.2962 18.0484 51.3029 18.004 51.2951C17.9558 51.2867 17.9095 51.2611 17.8681 51.2223C17.363 52.8087 16.401 54.3873 15.1878 55.3487C15.008 55.4889 14.8232 55.6179 14.6343 55.7299C14.058 56.0724 13.4377 56.2741 12.7911 56.2741C11.9496 56.2741 11.1516 55.937 10.44 55.3869C9.20425 54.4308 8.22367 52.8305 7.71226 51.2232C7.67063 51.2619 7.62399 51.287 7.57462 51.2959C7.47038 51.3143 7.3592 51.2608 7.25356 51.1557C7.03814 50.9384 6.84314 50.5006 6.75047 49.9745C6.74411 49.9402 6.73971 49.907 6.73612 49.8722C6.73779 49.5072 6.75459 49.1502 6.77889 48.798C6.78468 48.7815 6.79018 48.7684 6.79569 48.7537L6.79577 48.7537Z" fill="black"/>
<path d="M25.9956 63.4062C25.5353 61.7969 24.9544 60.691 24.3566 59.9123C23.1946 58.3956 21.9726 58.1517 21.4513 58.0506C21.3876 58.0389 21.3344 58.0283 21.2911 58.0185C20.7104 57.8812 20.0438 57.8411 19.456 57.8076C18.9827 57.7792 18.5314 57.7544 18.1637 57.6803C17.7362 58.8228 15.6357 59.6529 13.0485 59.6529C10.4604 59.6529 8.36159 58.8227 7.93433 57.6803C7.56472 57.7549 7.11291 57.7806 6.64101 57.8082C6.05267 57.8413 5.38707 57.8817 4.80619 58.0188C4.76261 58.0283 4.70883 58.0392 4.6454 58.0509C4.15388 58.147 3.03735 58.3638 1.93509 59.6629C1.27118 60.4468 0.612529 61.6216 0.0994619 63.4034C-0.0282473 63.8481 -0.0290737 64.3163 0.0746375 64.7523C0.122356 64.9513 0.185245 65.1475 0.279576 65.3284C0.934667 66.5823 3.27537 67.3689 6.17787 67.8123V67.5902C6.17787 66.8125 6.66417 66.1462 7.36063 65.8993C7.03598 65.2274 7.16065 64.4057 7.70986 63.8548L8.66916 62.8865C8.99686 62.5546 9.4556 62.364 9.92693 62.364C10.1931 62.364 10.454 62.4242 10.6896 62.5365C10.9293 61.8309 11.5913 61.3385 12.3661 61.3385H13.7248C14.4954 61.3385 15.1563 61.8306 15.4002 62.5354C15.6358 62.4214 15.8984 62.3609 16.1678 62.3609C16.6448 62.3609 17.0919 62.549 17.4209 62.8845L18.3827 63.8548C18.9278 64.4049 19.0502 65.2241 18.7295 65.8965C19.427 66.1387 19.9144 66.8069 19.9144 67.5902V67.8129C22.8175 67.3703 25.159 66.5829 25.8154 65.3284C25.9258 65.1199 25.9917 64.8906 26.0392 64.6557C26.1189 64.2471 26.1125 63.8181 25.9956 63.4061L25.9956 63.4062Z" fill="#7FBB42"/>
<path d="M6.00362 47.4925H20.2299C20.7846 47.4925 21.2342 47.0385 21.2342 46.4787C21.2342 45.9186 20.7846 45.4649 20.2299 45.4649H19.9573C19.9573 42.7711 18.4309 40.4401 16.2058 39.2996L15.6387 42.5463C15.594 42.8035 15.3723 42.984 15.1218 42.984C15.092 42.984 15.0617 42.9815 15.0305 42.976C14.7453 42.9244 14.5552 42.6505 14.6065 42.3621L15.252 38.654C15.0101 38.2617 14.5798 38 14.0872 38H12.1453C11.6538 38 11.2235 38.2617 10.9808 38.6543L11.6276 42.3632C11.6784 42.6516 11.4881 42.9258 11.2025 42.9771C11.1717 42.9827 11.1413 42.9852 11.1113 42.9852C10.8614 42.9852 10.639 42.8046 10.5949 42.5474L10.0284 39.3013C7.80321 40.4411 6.27681 42.772 6.27681 45.4658H6.00317C5.44932 45.4658 5 45.9192 5 46.4795C5.00029 47.0388 5.44903 47.4925 6.00345 47.4925H6.00362Z" fill="#EC9514"/>
<path d="M18.2783 67.0636L17.4304 66.9201C17.3498 66.6554 17.2436 66.3993 17.1168 66.1547L17.6086 65.458C17.7807 65.2454 17.7644 64.94 17.5733 64.7474L16.6114 63.7771C16.5127 63.6768 16.3808 63.6225 16.2405 63.6225C16.1191 63.6225 16.0008 63.664 15.9177 63.7339L15.2179 64.2386C14.9761 64.1098 14.7217 64.0026 14.46 63.9206L14.3207 63.0774C14.2934 62.8049 14.0689 62.6004 13.7972 62.6004H12.4385C12.1676 62.6004 11.9431 62.8052 11.9177 63.0655L11.777 63.9212C11.5144 64.0031 11.261 64.1107 11.0182 64.2391L10.3295 63.7415C10.2357 63.6648 10.1176 63.6264 9.9996 63.6264C9.8625 63.6264 9.72567 63.6777 9.62583 63.7777L8.66539 64.748C8.47231 64.9414 8.45738 65.2482 8.62181 65.4494L9.1216 66.1558C8.99472 66.4002 8.8888 66.6563 8.80796 66.9212L7.97247 67.0625C7.70328 67.0901 7.5 67.3169 7.5 67.5914V68.9635C7.5 69.2383 7.70327 69.4654 7.96118 69.4904L8.80853 69.6331C8.8888 69.8964 8.99554 70.1539 9.12213 70.3988L8.63143 71.0946C8.45824 71.3064 8.47451 71.6124 8.6662 71.806L9.62669 72.7764C9.72543 72.8761 9.85728 72.933 9.99793 72.933C10.1193 72.933 10.2368 72.8898 10.3201 72.819L11.0193 72.3157C11.2626 72.4445 11.5155 72.5515 11.7781 72.6334L11.9166 73.4766C11.9442 73.748 12.1693 73.9534 12.4398 73.9534H13.7986C14.0705 73.9534 14.2948 73.748 14.3193 73.4875L14.4608 72.6323C14.7226 72.5504 14.9769 72.4434 15.2188 72.3146L15.9075 72.8104C16.0016 72.8878 16.1202 72.9263 16.2388 72.9263C16.3759 72.9263 16.5127 72.875 16.6117 72.7753L17.5722 71.8049C17.7639 71.6113 17.7801 71.3053 17.6157 71.1035L17.1168 70.398C17.2436 70.1536 17.3496 69.8967 17.4304 69.6317L18.2643 69.4896C18.5354 69.4645 18.7387 69.2374 18.7387 68.9626V67.5906C18.7392 67.3155 18.5357 67.0887 18.2783 67.0636H18.2783ZM13.1192 70.5471C11.8799 70.5471 10.8712 69.5289 10.8712 68.276C10.8712 67.0237 11.8799 66.0052 13.1192 66.0052C14.3588 66.0052 15.3681 67.0234 15.3681 68.276C15.3678 69.5286 14.3588 70.5471 13.1192 70.5471Z" fill="#445A64"/>
<path d="M6.79577 10.7537H5.77246C5.68224 10.7537 5.59454 10.747 5.50738 10.737C5.48724 11.063 5.50766 11.4347 5.57689 11.8257C5.76443 12.8871 6.23694 13.7078 6.67574 13.7699C7.23098 15.2825 8.11229 16.7516 9.20205 17.8249C9.81742 18.4341 10.5007 18.9156 11.2283 19.2079C11.7289 19.4069 12.2516 19.5195 12.7906 19.5195C13.3259 19.5195 13.8492 19.4089 14.3492 19.2079C15.1028 18.9042 15.8087 18.4001 16.4414 17.7617C17.5045 16.6901 18.3648 15.2427 18.9082 13.7568C19.3286 13.6326 19.768 12.8384 19.9478 11.8241C20.0154 11.4401 20.0363 11.0747 20.0181 10.7532C20.011 10.7532 20.0052 10.754 19.9983 10.754H18.786C18.8525 10.9309 18.8875 11.1711 18.882 11.4487C18.879 11.6125 18.8627 11.7898 18.8293 11.9731C18.8213 12.0222 18.8092 12.0642 18.7976 12.1105C18.6903 12.6079 18.4931 13.015 18.2835 13.195C18.2368 13.2365 18.1853 13.2653 18.1378 13.2814C18.0929 13.2962 18.0484 13.3029 18.004 13.2951C17.9558 13.2867 17.9095 13.2611 17.8681 13.2223C17.363 14.8087 16.401 16.3873 15.1878 17.3487C15.008 17.4889 14.8232 17.6179 14.6343 17.7299C14.058 18.0724 13.4377 18.2741 12.7911 18.2741C11.9496 18.2741 11.1516 17.937 10.44 17.3869C9.20425 16.4308 8.22367 14.8305 7.71226 13.2232C7.67063 13.2619 7.62399 13.287 7.57462 13.2959C7.47038 13.3143 7.3592 13.2608 7.25356 13.1557C7.03814 12.9384 6.84314 12.5006 6.75047 11.9745C6.74411 11.9402 6.73971 11.907 6.73612 11.8722C6.73779 11.5072 6.75459 11.1502 6.77889 10.798C6.78468 10.7815 6.79018 10.7684 6.79569 10.7537L6.79577 10.7537Z" fill="#698297"/>
<path d="M25.9956 25.4062C25.5353 23.7969 24.9544 22.691 24.3566 21.9123C23.1946 20.3956 21.9726 20.1517 21.4513 20.0506C21.3876 20.0389 21.3344 20.0283 21.2911 20.0185C20.7104 19.8812 20.0438 19.8411 19.456 19.8076C18.9827 19.7792 18.5314 19.7544 18.1637 19.6803C17.7362 20.8228 15.6357 21.6529 13.0485 21.6529C10.4604 21.6529 8.36159 20.8227 7.93433 19.6803C7.56472 19.7549 7.11291 19.7806 6.64101 19.8082C6.05267 19.8413 5.38707 19.8817 4.80619 20.0188C4.76261 20.0283 4.70883 20.0392 4.6454 20.0509C4.15388 20.147 3.03735 20.3638 1.93509 21.6629C1.27118 22.4468 0.612529 23.6216 0.0994619 25.4034C-0.0282473 25.8481 -0.0290737 26.3163 0.0746375 26.7523C0.122356 26.9513 0.185245 27.1475 0.279576 27.3284C0.934667 28.5823 3.27537 29.3689 6.17787 29.8123V29.5902C6.17787 28.8125 6.66417 28.1462 7.36063 27.8993C7.03598 27.2274 7.16065 26.4057 7.70986 25.8548L8.66916 24.8865C8.99686 24.5546 9.4556 24.364 9.92693 24.364C10.1931 24.364 10.454 24.4242 10.6896 24.5365C10.9293 23.8309 11.5913 23.3385 12.3661 23.3385H13.7248C14.4954 23.3385 15.1563 23.8306 15.4002 24.5354C15.6358 24.4214 15.8984 24.3609 16.1678 24.3609C16.6448 24.3609 17.0919 24.549 17.4209 24.8845L18.3827 25.8548C18.9278 26.4049 19.0502 27.2241 18.7295 27.8965C19.427 28.1387 19.9144 28.8069 19.9144 29.5902V29.8129C22.8175 29.3703 25.159 28.5829 25.8154 27.3284C25.9258 27.1199 25.9917 26.8906 26.0392 26.6557C26.1189 26.2471 26.1125 25.8181 25.9956 25.4061L25.9956 25.4062Z" fill="#698297"/>
<path d="M6.00362 9.49246H20.2299C20.7846 9.49246 21.2342 9.03853 21.2342 8.47871C21.2342 7.9186 20.7846 7.46493 20.2299 7.46493H19.9573C19.9573 4.77115 18.4309 2.44014 16.2058 1.29961L15.6387 4.54626C15.594 4.80348 15.3723 4.98404 15.1218 4.98404C15.092 4.98404 15.0617 4.98153 15.0305 4.97597C14.7453 4.92441 14.5552 4.65051 14.6065 4.36207L15.252 0.654015C15.0101 0.261662 14.5798 0 14.0872 0H12.1453C11.6538 0 11.2235 0.261662 10.9808 0.65429L11.6276 4.36323C11.6784 4.65162 11.4881 4.92581 11.2025 4.97708C11.1717 4.98269 11.1413 4.9852 11.1113 4.9852C10.8614 4.9852 10.639 4.80463 10.5949 4.54742L10.0284 1.30132C7.80321 2.44106 6.27681 4.77197 6.27681 7.46579H6.00317C5.44932 7.46579 5 7.91918 5 8.47954C5.00029 9.03882 5.44903 9.49246 6.00345 9.49246H6.00362Z" fill="#698297"/>
<path d="M18.2783 29.0636L17.4304 28.9201C17.3498 28.6554 17.2436 28.3993 17.1168 28.1547L17.6086 27.458C17.7807 27.2454 17.7644 26.94 17.5733 26.7474L16.6114 25.7771C16.5127 25.6768 16.3808 25.6225 16.2405 25.6225C16.1191 25.6225 16.0008 25.664 15.9177 25.7339L15.2179 26.2386C14.9761 26.1098 14.7217 26.0026 14.46 25.9206L14.3207 25.0774C14.2934 24.8049 14.0689 24.6004 13.7972 24.6004H12.4385C12.1676 24.6004 11.9431 24.8052 11.9177 25.0655L11.777 25.9212C11.5144 26.0031 11.261 26.1107 11.0182 26.2391L10.3295 25.7415C10.2357 25.6648 10.1176 25.6264 9.9996 25.6264C9.8625 25.6264 9.72567 25.6777 9.62583 25.7777L8.66539 26.748C8.47231 26.9414 8.45738 27.2482 8.62181 27.4494L9.1216 28.1558C8.99472 28.4002 8.8888 28.6563 8.80796 28.9212L7.97247 29.0625C7.70328 29.0901 7.5 29.3169 7.5 29.5914V30.9635C7.5 31.2383 7.70327 31.4654 7.96118 31.4904L8.80853 31.6331C8.8888 31.8964 8.99554 32.1539 9.12213 32.3988L8.63143 33.0946C8.45824 33.3064 8.47451 33.6124 8.6662 33.806L9.62669 34.7764C9.72543 34.8761 9.85728 34.933 9.99793 34.933C10.1193 34.933 10.2368 34.8898 10.3201 34.819L11.0193 34.3157C11.2626 34.4445 11.5155 34.5515 11.7781 34.6334L11.9166 35.4766C11.9442 35.748 12.1693 35.9534 12.4398 35.9534H13.7986C14.0705 35.9534 14.2948 35.748 14.3193 35.4875L14.4608 34.6323C14.7226 34.5504 14.9769 34.4434 15.2188 34.3146L15.9075 34.8104C16.0016 34.8878 16.1202 34.9263 16.2388 34.9263C16.3759 34.9263 16.5127 34.875 16.6117 34.7753L17.5722 33.8049C17.7639 33.6113 17.7801 33.3053 17.6157 33.1035L17.1168 32.398C17.2436 32.1536 17.3496 31.8967 17.4304 31.6317L18.2643 31.4896C18.5354 31.4645 18.7387 31.2374 18.7387 30.9626V29.5906C18.7392 29.3155 18.5357 29.0887 18.2783 29.0636H18.2783ZM13.1192 32.5471C11.8799 32.5471 10.8712 31.5289 10.8712 30.276C10.8712 29.0237 11.8799 28.0052 13.1192 28.0052C14.3588 28.0052 15.3681 29.0234 15.3681 30.276C15.3678 31.5286 14.3588 32.5471 13.1192 32.5471Z" fill="#698297"/>
</g>
<defs>
<clipPath id="clip0_1214_285">
<rect width="36" height="74" fill="white"/>
</clipPath>
</defs>
</svg>
