<svg width="36" height="74" viewBox="0 0 36 74" fill="none" xmlns="http://www.w3.org/2000/svg">
<g clip-path="url(#clip0_1214_296)">
<path d="M27 26.4218V12.8299" stroke="#698297"/>
<path d="M12 8.36224H23.5265" stroke="#698297"/>
<path d="M7.5 23.6531V12.3265" stroke="#698297"/>
<path d="M14.4946 21.3878H1V34.9796H14.4946V21.3878Z" fill="#EDEDED" stroke="#698297"/>
<path d="M34.2936 8.47244L27.1468 1.44962L20 8.47244L27.1468 15.4953L34.2936 8.47244Z" fill="#EDEDED" stroke="#698297"/>
<path d="M14.4946 7.79592C14.4946 11.5495 11.4734 14.5918 7.7473 14.5918C4.02123 14.5918 1 11.5495 1 7.79592C1 4.04227 4.02123 1 7.7473 1C11.4734 1 14.4946 4.04227 14.4946 7.79592Z" fill="#EDEDED" stroke="#698297"/>
<path d="M26.8125 34.9796C30.8511 34.9796 34.125 31.6834 34.125 27.6173C34.125 23.5513 30.8511 20.2551 26.8125 20.2551C22.7739 20.2551 19.5 23.5513 19.5 27.6173C19.5 31.6834 22.7739 34.9796 26.8125 34.9796Z" fill="#EDEDED" stroke="#698297"/>
<path d="M27 63.9184V50.3265" stroke="#271F47"/>
<path d="M12 46.3622H23.5265" stroke="#271F47"/>
<path d="M7.5 61.6531V50.3265" stroke="#271F47"/>
<path d="M14.4946 59.3878H1V72.9796H14.4946V59.3878Z" fill="#BBD02D" stroke="#271F47"/>
<path d="M34.2936 46.4724L27.1468 39.4496L20 46.4724L27.1468 53.4952L34.2936 46.4724Z" fill="#BBD02D" stroke="#271F47"/>
<path d="M14.4946 45.7959C14.4946 49.5495 11.4734 52.5918 7.7473 52.5918C4.02123 52.5918 1 49.5495 1 45.7959C1 42.0423 4.02123 39 7.7473 39C11.4734 39 14.4946 42.0423 14.4946 45.7959Z" fill="#F18A00" stroke="#271F47"/>
<path d="M26.8125 72.9796C30.8511 72.9796 34.125 69.6834 34.125 65.6173C34.125 61.5513 30.8511 58.2551 26.8125 58.2551C22.7739 58.2551 19.5 61.5513 19.5 65.6173C19.5 69.6834 22.7739 72.9796 26.8125 72.9796Z" fill="#F18A00" stroke="#271F47"/>
</g>
<defs>
<clipPath id="clip0_1214_296">
<rect width="36" height="74" fill="white"/>
</clipPath>
</defs>
</svg>
