<svg width="47" height="74" viewBox="0 0 47 74" fill="none" xmlns="http://www.w3.org/2000/svg">
<g filter="url(#filter0_i_1214_218)">
<path d="M31.0345 38H2.48276C1.11157 38 0 39.1116 0 40.4828V46.6897C0 48.0608 1.11157 49.1724 2.48276 49.1724H31.0345C32.4057 49.1724 33.5172 48.0608 33.5172 46.6897V40.4828C33.5172 39.1116 32.4057 38 31.0345 38Z" fill="#ADC2CF"/>
</g>
<path d="M2.48277 39.1207H31.0345C31.7867 39.1207 32.3966 39.7305 32.3966 40.4828V46.6897C32.3966 47.4419 31.7867 48.0517 31.0345 48.0517H2.48277C1.73052 48.0517 1.1207 47.4419 1.1207 46.6897V40.4828C1.1207 39.7305 1.73052 39.1207 2.48277 39.1207Z" stroke="#698297"/>
<g filter="url(#filter1_i_1214_218)">
<path d="M31.0345 47.431H2.48276C1.11157 47.431 0 48.5426 0 49.9138V56.1207C0 57.4919 1.11157 58.6034 2.48276 58.6034H31.0345C32.4057 58.6034 33.5172 57.4919 33.5172 56.1207V49.9138C33.5172 48.5426 32.4057 47.431 31.0345 47.431Z" fill="#ADC2CF"/>
</g>
<path d="M2.48277 48.5517H31.0345C31.7867 48.5517 32.3966 49.1615 32.3966 49.9138V56.1207C32.3966 56.8729 31.7867 57.4828 31.0345 57.4828H2.48277C1.73052 57.4828 1.1207 56.8729 1.1207 56.1207V49.9138C1.1207 49.1615 1.73052 48.5517 2.48277 48.5517Z" stroke="#698297"/>
<g filter="url(#filter2_i_1214_218)">
<path d="M31.0345 56.8621H2.48276C1.11157 56.8621 0 57.9736 0 59.3448V65.5517C0 66.9229 1.11157 68.0345 2.48276 68.0345H31.0345C32.4057 68.0345 33.5172 66.9229 33.5172 65.5517V59.3448C33.5172 57.9736 32.4057 56.8621 31.0345 56.8621Z" fill="#ADC2CF"/>
</g>
<path d="M2.48277 57.9828H31.0345C31.7867 57.9828 32.3966 58.5926 32.3966 59.3448V65.5517C32.3966 66.304 31.7867 66.9138 31.0345 66.9138H2.48277C1.73052 66.9138 1.1207 66.304 1.1207 65.5517V59.3448C1.1207 58.5926 1.73052 57.9828 2.48277 57.9828Z" stroke="#698297"/>
<path d="M6.20689 41.7241H4.96552V45.4483H6.20689V41.7241Z" fill="#698297"/>
<path d="M6.20689 51.1552H4.96552V54.8793H6.20689V51.1552Z" fill="#698297"/>
<path d="M6.20689 60.5862H4.96552V64.3104H6.20689V60.5862Z" fill="#698297"/>
<path d="M29.7931 42.9655H28.5517V44.2069H29.7931V42.9655Z" fill="#C81101"/>
<path d="M27.3103 42.9655H26.069V44.2069H27.3103V42.9655Z" fill="#C81101"/>
<path d="M24.8276 42.9655H23.5862V44.2069H24.8276V42.9655Z" fill="#C81101"/>
<path d="M44.9348 54H20.0652C19.7531 54 19.5 54.2537 19.5 54.5667V70.4333C19.5 70.7463 19.7531 71 20.0652 71H44.9348C45.2469 71 45.5 70.7463 45.5 70.4333V54.5667C45.5 54.2537 45.2469 54 44.9348 54Z" fill="white" stroke="#698297"/>
<path d="M19.5 54L32.5 62L45.5 54" stroke="#698297"/>
<path d="M31.0345 0H2.48276C1.11157 0 0 1.11157 0 2.48276V8.68966C0 10.0608 1.11157 11.1724 2.48276 11.1724H31.0345C32.4057 11.1724 33.5172 10.0608 33.5172 8.68966V2.48276C33.5172 1.11157 32.4057 0 31.0345 0Z" fill="#EDEDED"/>
<path d="M2.48277 1.1207H31.0345C31.7867 1.1207 32.3966 1.73052 32.3966 2.48277V8.68966C32.3966 9.44191 31.7867 10.0517 31.0345 10.0517H2.48277C1.73052 10.0517 1.1207 9.44191 1.1207 8.68966V2.48277C1.1207 1.73052 1.73052 1.1207 2.48277 1.1207Z" stroke="#698297"/>
<path d="M31.0345 9.43103H2.48276C1.11157 9.43103 0 10.5426 0 11.9138V18.1207C0 19.4919 1.11157 20.6034 2.48276 20.6034H31.0345C32.4057 20.6034 33.5172 19.4919 33.5172 18.1207V11.9138C33.5172 10.5426 32.4057 9.43103 31.0345 9.43103Z" fill="#EDEDED"/>
<path d="M2.48277 10.5517H31.0345C31.7867 10.5517 32.3966 11.1615 32.3966 11.9138V18.1207C32.3966 18.8729 31.7867 19.4828 31.0345 19.4828H2.48277C1.73052 19.4828 1.1207 18.8729 1.1207 18.1207V11.9138C1.1207 11.1615 1.73052 10.5517 2.48277 10.5517Z" stroke="#698297"/>
<path d="M31.0345 18.8621H2.48276C1.11157 18.8621 0 19.9736 0 21.3448V27.5517C0 28.9229 1.11157 30.0345 2.48276 30.0345H31.0345C32.4057 30.0345 33.5172 28.9229 33.5172 27.5517V21.3448C33.5172 19.9736 32.4057 18.8621 31.0345 18.8621Z" fill="#EDEDED"/>
<path d="M2.48277 19.9828H31.0345C31.7867 19.9828 32.3966 20.5926 32.3966 21.3448V27.5517C32.3966 28.304 31.7867 28.9138 31.0345 28.9138H2.48277C1.73052 28.9138 1.1207 28.304 1.1207 27.5517V21.3448C1.1207 20.5926 1.73052 19.9828 2.48277 19.9828Z" stroke="#698297"/>
<path d="M6.20689 3.72412H4.96552V7.44826H6.20689V3.72412Z" fill="#698297"/>
<path d="M6.20689 13.1552H4.96552V16.8793H6.20689V13.1552Z" fill="#698297"/>
<path d="M6.20689 22.5862H4.96552V26.3104H6.20689V22.5862Z" fill="#698297"/>
<path d="M29.7931 4.96552H28.5517V6.20689H29.7931V4.96552Z" fill="#698297"/>
<path d="M27.3103 4.96552H26.069V6.20689H27.3103V4.96552Z" fill="#698297"/>
<path d="M24.8276 4.96552H23.5862V6.20689H24.8276V4.96552Z" fill="#698297"/>
<path d="M44.9348 16H20.0652C19.7531 16 19.5 16.2537 19.5 16.5667V32.4333C19.5 32.7463 19.7531 33 20.0652 33H44.9348C45.2469 33 45.5 32.7463 45.5 32.4333V16.5667C45.5 16.2537 45.2469 16 44.9348 16Z" fill="#EDEDED" stroke="#698297"/>
<path d="M19.5 16L32.5 24L45.5 16" stroke="#698297"/>
<defs>
<filter id="filter0_i_1214_218" x="0" y="38" width="35.5172" height="13.1724" filterUnits="userSpaceOnUse" color-interpolation-filters="sRGB">
<feFlood flood-opacity="0" result="BackgroundImageFix"/>
<feBlend mode="normal" in="SourceGraphic" in2="BackgroundImageFix" result="shape"/>
<feColorMatrix in="SourceAlpha" type="matrix" values="0 0 0 0 0 0 0 0 0 0 0 0 0 0 0 0 0 0 127 0" result="hardAlpha"/>
<feOffset dx="2" dy="2"/>
<feGaussianBlur stdDeviation="2"/>
<feComposite in2="hardAlpha" operator="arithmetic" k2="-1" k3="1"/>
<feColorMatrix type="matrix" values="0 0 0 0 1 0 0 0 0 1 0 0 0 0 1 0 0 0 1 0"/>
<feBlend mode="normal" in2="shape" result="effect1_innerShadow_1214_218"/>
</filter>
<filter id="filter1_i_1214_218" x="0" y="47.431" width="35.5172" height="13.1724" filterUnits="userSpaceOnUse" color-interpolation-filters="sRGB">
<feFlood flood-opacity="0" result="BackgroundImageFix"/>
<feBlend mode="normal" in="SourceGraphic" in2="BackgroundImageFix" result="shape"/>
<feColorMatrix in="SourceAlpha" type="matrix" values="0 0 0 0 0 0 0 0 0 0 0 0 0 0 0 0 0 0 127 0" result="hardAlpha"/>
<feOffset dx="2" dy="2"/>
<feGaussianBlur stdDeviation="2"/>
<feComposite in2="hardAlpha" operator="arithmetic" k2="-1" k3="1"/>
<feColorMatrix type="matrix" values="0 0 0 0 1 0 0 0 0 1 0 0 0 0 1 0 0 0 1 0"/>
<feBlend mode="normal" in2="shape" result="effect1_innerShadow_1214_218"/>
</filter>
<filter id="filter2_i_1214_218" x="0" y="56.8621" width="35.5172" height="13.1724" filterUnits="userSpaceOnUse" color-interpolation-filters="sRGB">
<feFlood flood-opacity="0" result="BackgroundImageFix"/>
<feBlend mode="normal" in="SourceGraphic" in2="BackgroundImageFix" result="shape"/>
<feColorMatrix in="SourceAlpha" type="matrix" values="0 0 0 0 0 0 0 0 0 0 0 0 0 0 0 0 0 0 127 0" result="hardAlpha"/>
<feOffset dx="2" dy="2"/>
<feGaussianBlur stdDeviation="2"/>
<feComposite in2="hardAlpha" operator="arithmetic" k2="-1" k3="1"/>
<feColorMatrix type="matrix" values="0 0 0 0 1 0 0 0 0 1 0 0 0 0 1 0 0 0 1 0"/>
<feBlend mode="normal" in2="shape" result="effect1_innerShadow_1214_218"/>
</filter>
</defs>
</svg>
