<svg width="72" height="72" viewBox="0 0 72 72" fill="none" xmlns="http://www.w3.org/2000/svg">
<rect width="72" height="72" fill="#EDEDED"/>
<path d="M5 3C5 1.89543 5.89543 1 7 1H46C47.1046 1 48 1.89542 48 3V71H5V3Z" fill="#EDEDED" stroke="#698297" stroke-width="2"/>
<path d="M9.5 12.25H43.2188V21.7812H9.5V12.25Z" fill="#EDEDED" stroke="#698297" stroke-width="2"/>
<path d="M15.25 11.75H14.75V12.25V14.5V15H15.25H37.75H38.25V14.5V12.25V11.75H37.75H15.25Z" fill="#698297" stroke="#698297"/>
<path d="M9.5 25.4688H43.2188V35H9.5V25.4688Z" fill="#EDEDED" stroke="#698297" stroke-width="2"/>
<path d="M15.25 24.9688H14.75V25.4688V27.7188V28.2188H15.25H37.75H38.25V27.7188V25.4688V24.9688H37.75H15.25Z" fill="#698297" stroke="#698297"/>
<path d="M9.5 38.6875H43.2188V48.2187H9.5V38.6875Z" fill="#EDEDED" stroke="#698297" stroke-width="2"/>
<path d="M15.25 38.1875H14.75V38.6875V40.9375V41.4375H15.25H37.75H38.25V40.9375V38.6875V38.1875H37.75H15.25Z" fill="#698297" stroke="#698297"/>
<path d="M40.8438 7.875C42.0864 7.875 43.0938 6.86764 43.0938 5.625C43.0938 4.38236 42.0864 3.375 40.8438 3.375C39.6012 3.375 38.5938 4.38236 38.5938 5.625C38.5938 6.86764 39.6012 7.875 40.8438 7.875Z" fill="#698297"/>
<path d="M8.5 68.625H23.9688L8.5 53.1562V68.625Z" fill="#EDEDED"/>
</svg>
